<svg xmlns="http://www.w3.org/2000/svg" width="248.61" height="196.33" viewBox="0 0 248.61 196.33">
  <ellipse cx="112.04" cy="156.25" rx="112.04" ry="38.83" style="fill:#ddeef2;" />
  <polygon points="245.14 170.84 248.61 174.9 245.14 175.69 244.19 175.49 244.43 174.35 240.41 171.75 239.63 172.87 241.2 173.65 240.96 174.8 232.54 173.01 227.62 170.37 230.21 170.1 232.32 171.75 237.31 172.31 236.26 170.92 237.63 170.92 233.17 169.49 231.49 168.44 227.62 167.76 227.62 166.27 228.28 166.01 229.55 165.76 231.06 163.87 231.49 163.87 233.17 159.26 234.63 157.73 236.78 158.88 239.43 161.57 238.84 163.87 245.14 170.84" style="fill:#f7bda3;" />
  <polygon points="244.43 174.35 244.19 175.49 240.96 174.8 241.2 173.65 244.43 174.35" style="fill:#f7bda3;" />
  <polygon points="244.43 174.35 241.2 173.65 239.63 172.87 240.41 171.75 244.43 174.35" style="fill:#f3c9b9;" />
  <polygon points="240.41 154.73 241.99 157.73 240.41 157.73 239.43 161.57 236.78 158.88 234.63 157.73 236.78 155.48 240.41 154.73" style="fill:#e9ae9a;" />
  <polygon points="237.63 170.92 236.26 170.92 237.31 172.31 232.32 171.75 230.21 170.1 227.62 170.37 225.98 169.49 225.98 169.49 225.26 166.02 226.91 165.06 227.62 166.27 227.62 167.76 231.49 168.44 233.17 169.49 237.63 170.92" style="fill:#f7bda3;" />
  <polygon points="236.78 155.48 234.63 157.73 233.17 159.26 228.94 160.03 223.02 161.74 213.1 162.76 210.85 161.94 211.26 160.8 225.92 157.73 236.78 155.48" style="fill:#f7bda3;" />
  <polygon points="225.26 166.02 224.83 166.27 217.09 165.76 211.96 165.04 212.13 163.87 213.1 162.76 223.02 161.74 228.94 160.03 233.17 159.26 231.49 163.87 231.06 163.87 228.94 163.87 226.91 165.06 225.26 166.02" style="fill:#efbeab;" />
  <polygon points="232.54 173.01 224.03 173.01 206.69 168.68 198.19 165.37 196.93 161.74 203.33 164.81 207.96 167.02 224.03 168.44 225.98 169.49 225.98 169.49 227.62 170.37 232.54 173.01" style="fill:#d29d8f;" />
  <polygon points="231.06 163.87 229.55 165.76 228.28 166.01 227.62 166.27 226.91 165.06 228.94 163.87 231.06 163.87" style="fill:#f3c9b9;" />
  <polygon points="225.26 166.02 225.98 169.49 224.03 168.44 207.96 167.02 203.33 164.81 203.78 163.87 211.96 165.04 217.09 165.76 224.83 166.27 225.26 166.02" style="fill:#f7bda3;" />
  <path d="M220.37,194.85l-5,1.58-2.49-.59,0-.19,1-1.13-4.35-2.18-0.79,1.09-6.26-3.22-1-2.13,4.12-1.78-1-2.48-3.07-.5-2.52.5,2.52,1.24-1.65,1.8-0.6,1.22-1.7-.61-3.3,1.67-3.09-.51-5.12.25-2-.25-8.78-1.16-0.52-.42,0.61-.75h2.52l2.78-.33,0.64-.31,1.57-.59-0.47-1.24h-2.84l-1.68-.5-1.63-.64L176,181.3l0.21-1.36-0.42-1.2H174l0.41-1.54v-3.39h1.79l1.63-.71h2.78l0.64-1.26h-6.84l-0.86-.72,0.45-.53h8.35l0.47,2.52-4.41,3.07v3.07l2.21,2,22.38-1,5.67-3.07h1.57l-1.57,6.62,6.62,8.51h2.52Zm-26.15-9.8,3.83-1.74-2.92.25h-3.27l-1.81.25h-4l0.45,1.53,2.09-.71,0.65,0.41h5Z" transform="translate(-0.76 -0.09)" style="fill:#efbeab;" />
  <polygon points="213.1 162.76 212.13 163.87 207.96 162.76 207.05 162.25 207.96 160.89 210.85 161.94 213.1 162.76" style="fill:#f3c9b9;" />
  <polygon points="213.1 194.41 212.13 195.54 212.08 195.74 207.96 194.76 207.72 194.72 207.96 193.32 208.75 192.24 213.1 194.41" style="fill:#f3c9b9;" />
  <polygon points="212.13 163.87 211.96 165.04 203.78 163.87 203.78 160.41 207.05 162.25 207.96 162.76 212.13 163.87" style="fill:#e9ae9a;" />
  <path d="M205.87,152.3l6.15,8.59L211.61,162,208.71,161l-0.9,1.36-3.88-10.74h-1.48l0.74,4.72h-1.32l-5.33-12h-2.41l-0.85-3.27-5.61-1.22-0.26,3.67-1.24-3.67-0.2-3.5-0.11-2,3.62-4.25,5.91-2.56,7.64,6.81,0.15,8.12Zm-5.33-17,0.29-1.26-1.62-.75v1.51Zm-1.33,1-2.67-3h-0.59l-0.55,1,2.29,2h1.53Z" transform="translate(-0.76 -0.09)" style="fill:#efbeab;" />
  <polygon points="207.96 193.32 207.72 194.72 203.69 194.01 203.78 193.49 200.84 191.23 201.7 190.11 207.96 193.32" style="fill:#f3c9b9;" />
  <polygon points="203.18 151.51 207.05 162.25 203.78 160.41 202.28 160.03 201.7 157.73 200.9 157.6 201.12 156.23 202.44 156.23 201.7 151.51 203.18 151.51" style="fill:#f7bda3;" />
  <polygon points="203.78 183.72 204.83 186.2 200.71 187.98 201.7 190.11 200.84 191.23 198.46 189.4 198.46 187.98 199.06 186.76 200.71 184.96 198.19 183.72 200.71 183.22 203.78 183.72" style="fill:#f3c9b9;" />
  <polygon points="203.78 160.41 203.78 163.87 203.33 164.81 196.93 161.74 191.78 146.94 192.96 147.56 195.79 154.24 197.79 154.24 198.46 156.23 197.12 155.17 196.41 155.48 198.19 158.23 198.46 158.23 198.46 159.26 201.12 160.8 202.28 160.8 202.28 160.03 203.78 160.41" style="fill:#f7bda3;" />
  <polygon points="203.78 193.49 203.69 194.01 193.46 192.24 185.11 192.24 176.32 190.59 193.5 189.66 198.46 189.4 200.84 191.23 203.78 193.49" style="fill:#d29d8f;" />
  <polygon points="202.28 160.03 202.28 160.8 201.12 160.8 198.46 159.26 198.46 158.23 198.46 157.2 200.9 157.6 201.7 157.73 202.28 160.03" style="fill:#d29d8f;" />
  <polygon points="195.79 144.25 201.12 156.23 200.9 157.6 198.46 157.2 198.46 158.23 198.19 158.23 196.41 155.48 197.12 155.17 198.46 156.23 197.79 154.24 195.79 154.24 192.96 147.56 191.78 146.94 191.09 144.97 187.79 144.97 187.18 144.97 186.66 143.44 186.92 139.77 192.53 140.98 193.38 144.25 195.79 144.25" style="fill:#f7bda3;" />
  <polygon points="198.46 134.76 198.46 133.24 200.08 134 199.79 135.25 198.46 134.76" style="fill:#e9ae9a;" />
  <polygon points="198.46 187.98 198.46 189.4 193.5 189.66 193.46 189.04 196.76 187.37 198.46 187.98" style="fill:#f3c9b9;" />
  <polygon points="195.79 133.24 198.46 136.27 196.93 136.27 194.64 134.25 195.19 133.24 195.79 133.24" style="fill:#e9ae9a;" />
  <polygon points="197.29 183.22 193.46 184.96 190.37 184.96 188.44 184.96 187.79 184.55 185.7 185.26 185.25 183.72 189.28 183.72 191.09 183.47 194.37 183.47 197.29 183.22" style="fill:#f3c9b9;" />
  <polygon points="193.46 189.04 193.5 189.66 176.32 190.59 170.02 189.4 158.49 167.01 158.49 164.38 159.78 164.38 161.22 166.27 161.63 165.37 165.01 167.01 165.44 169.49 163.94 170.49 164.53 171.75 166.35 171.75 167.09 173.01 166.35 175.09 167.83 178.64 170.02 183.72 173.99 186.95 174.51 187.37 183.29 188.53 185.25 188.79 190.37 188.53 193.46 189.04" style="fill:#f7bda3;" />
  <polygon points="191.88 10.91 193.46 14.46 190.31 19.38 182.01 29.82 185.11 19.38 183.38 16.92 183.38 15.81 185.11 15.81 185.27 12.69 178.81 12.69 176.95 15.81 171.16 17.29 170.29 14.25 182.11 8.66 182.11 4.1 187.79 7.72 189.44 8.82 190.1 8.36 191.88 10.91" style="fill:#f3f3f3;" />
  <polygon points="190.1 8.36 189.44 8.82 187.79 7.72 182.11 4.1 182.11 8.66 170.29 14.25 171.16 17.29 176.95 15.81 177.73 16.73 168.2 24.82 164.14 15.83 166.35 13.55 177.7 4.1 183.38 0 186.84 2.05 188.73 6.4 190.1 8.36" style="fill:#e7e7e8;" />
  <path d="M173.37,152.3l1.57,2.52,0.3,0.55-4.47,2.44-0.9-2-2.76-6.21-9.45.2-0.95-2.21-14.5,1.1-9.45-3.62-7.44,1.06V151L122,146.87l-8.74-4.16-6.94-9.38-3.94-1.2v2.21l4.41,6.13v9.87l6.47-3.46,2,1.69-2.84,1.13,1.42,1.92,2.72-2,2.79,3.06,6,6,3.72,6.26,3.72-.94-1.86-6.15h5.33l3.62-2.17h6.86l2.75,1.09,5.36,1.08,2.88,6.13,0,0-4.25,2.14v1.72l-3.94,2.72,0.09,0.24-6.08,2.32-7.25,6.15,0.91-2.83,2.71-1.43v-2.52l3.43-.88-5.24-2-1.81,1.94-3.47,1.58-2.3-3,1-1.55-1-.47-5.14,2.27-2.51.69,0.84,1.46h3.53v3.62h-3.53L122,179.24l0.06,0.54-4.39.5,0-.35-3.35-1.73v-3.56l-1.82-1.54L107.56,164,105,154.82l-5.35-5L95,142.46,94,132.13l-2.52-2L94,119.84v-6.62l9.1-15.71,0,0.08,7.41,3.25h5.38l3.44,8.27,4.7-2.09h7.44l5.64,7.45h5.07l1.58-5.35h4.3l4.33,4.1,11.07-12.37,4.65,10.48L173.42,125l7.25,5.12h8.82l-3.62,4.25,0.11,2h-3.34L172.79,143,171,148.56Zm-26.66,17.28,6.7-5.14-2-.47h-2l-2.44-.56L146,164l2.12,1.89-1.38,1.58v2.15Z" transform="translate(-0.76 -0.09)" style="fill:#f7f7f6;" />
  <polygon points="187.18 144.97 187.79 146.78 175.5 152.21 175.09 151.36 178.81 149.59 180.55 146.94 186.6 144.25 186.66 143.44 187.18 144.97" style="fill:#d3d2d2;" />
  <polygon points="185.42 139.77 186.66 143.44 186.6 144.25 180.55 146.94 178.81 149.59 175.09 151.36 173.29 152.21 172.62 152.21 170.29 148.46 172.03 142.94 181.88 136.27 185.22 136.27 185.42 139.77" style="fill:#e4e4e4;" /><polygon points="185.27 12.69 185.11 15.81 183.38 15.81 178.81 15.81 177.73 16.73 176.95 15.81 178.81 12.69 185.27 12.69" style="fill:#e7e7e8;" />
  <polygon points="183.38 16.92 185.11 19.38 182.01 29.82 180.54 31.67 182.11 33.09 177.7 39.08 177.7 35.37 177.7 31.67 172.66 31.67 167.27 34.67 172.37 34.67 159.12 48.69 159.12 53.41 147.33 61.14 145.96 63.26 137.29 69.8 131.38 77.99 124.57 80.99 123.31 78 123.31 77.99 155.49 44.75 155.49 40.65 183.38 16.92" style="fill:#e1e1e1;" />
  <polygon points="130.83 38.74 136.73 33.09 141.46 33.09 144.61 24.74 152.18 26.47 151.66 34.67 155.96 35.37 160.84 28.91 160.84 24.82 168.2 24.82 177.73 16.73 178.81 15.81 183.38 15.81 183.38 16.92 155.49 40.65 155.49 44.75 123.31 77.99 123.31 78 122.24 79.1 122.06 86.98 124.57 93.11 132.01 92.25 138.87 99.24 141.62 99.24 149.69 104.7 162.73 93.11 162.73 96.27 162.73 100.76 151.66 113.14 147.33 109.04 143.04 109.04 141.46 114.39 136.38 114.39 130.75 106.95 123.31 106.95 118.61 109.04 115.18 100.76 109.79 100.76 102.39 97.51 102.35 97.43 103.02 96.27 103.02 93.11 109 82.89 109 75.32 115.7 63.26 120.03 55.46 114.36 55.46 116.96 53.42 124.44 44.75 128.84 40.65 130.83 38.74" style="fill:#f3f3f3;" />
  <polygon points="181.64 183.72 182.11 184.96 180.55 185.55 179.91 185.87 177.13 186.2 174.6 186.2 172.37 182.9 173.29 181.2 172.03 181.18 172.03 179.24 172.03 178.64 173.29 178.64 175.07 178.64 175.5 179.84 175.29 181.2 175.5 182.58 177.13 183.22 178.81 183.72 181.64 183.72" style="fill:#f7bda3;" />
  <polygon points="180.55 171.75 179.91 173.01 178.38 173.01 177.13 173.01 175.5 173.72 173.71 173.72 173.71 177.11 173.29 178.64 172.03 178.64 170.02 177.58 170.57 175.41 168.93 175.41 168.93 173.01 169.74 173.01 167.83 170.92 168.19 169.99 169.33 170.24 171.03 169.49 172.84 171.02 173.71 171.75 180.55 171.75" style="fill:#f7bda3;" />
  <polygon points="177.7 39.08 177.7 42.7 173.29 49.08 172.03 61.14 169.19 65.39 172.03 71.54 162.73 93.11 149.69 104.7 141.62 99.24 138.87 99.24 132.01 92.25 124.57 93.11 122.06 86.98 122.24 79.1 123.31 78 124.57 80.99 131.38 77.99 137.29 69.8 145.96 63.26 147.33 61.14 159.12 53.41 159.12 48.69 172.37 34.67 167.27 34.67 172.66 31.67 177.7 31.67 177.7 35.37 177.7 39.08" style="fill:#e7e7e8;" />
  <polygon points="175.5 152.21 175.5 154.73 174.49 155.29 174.18 154.73 172.62 152.21 173.29 152.21 175.09 151.36 175.5 152.21" style="fill:#f3f3f3;" />
  <polygon points="172.37 182.9 174.6 186.2 173.99 186.95 170.02 183.72 167.83 178.64 166.35 175.09 167.09 173.01 166.35 171.75 164.53 171.75 163.94 170.49 165.44 169.49 165.01 167.01 166.35 166.27 166.72 165.33 169.74 166.01 172.03 168.68 172.27 167.55 173.29 170.49 172.84 171.02 171.03 169.49 169.33 170.24 168.19 169.99 167.83 170.92 169.74 173.01 168.93 173.01 168.93 175.41 170.57 175.41 170.02 177.58 172.03 178.64 172.03 179.24 172.03 181.18 173.29 181.2 172.37 182.9" style="fill:#efbeab;" />
  <polygon points="167.04 158.87 167.09 158.55 167.45 156.23 167.54 155.51 169.12 155.7 170.02 157.73 170.02 163.87 172.03 163.87 172.03 166.87 172.27 167.55 172.03 168.68 169.74 166.01 166.72 165.33 166.35 166.27 165.01 167.01 161.63 165.37 161.22 166.27 159.78 164.38 157.4 160.8 157.4 159.26 160.84 159.26 162.53 160.03 163.32 158.23 167.04 158.87" style="fill:#f7bda3;" />
  <polygon points="166.35 149.49 169.12 155.7 167.54 155.51 167.27 155.48 163.94 150.9 156.48 150.9 156.9 149.69 166.35 149.49" style="fill:#fdefe8;" />
  <polygon points="164.14 15.83 168.2 24.82 160.84 24.82 160.84 28.91 155.96 35.37 151.66 34.67 152.18 26.47 159.11 21.04 164.14 15.83" style="fill:#e7e7e8;" />
  <polygon points="167.54 155.51 167.45 156.23 163.1 157.35 162.92 157.39 157.4 156.23 159.49 152.56 162.53 152.56 165.68 155.48 167.27 155.48 167.54 155.51" style="fill:#e9ae9a;" />
  <polygon points="167.45 156.23 167.09 158.55 167.04 158.87 163.32 158.23 163.1 157.35 167.45 156.23" style="fill:#e9ae9a;" />
  <polygon points="163.94 150.9 167.27 155.48 165.68 155.48 162.53 152.56 159.49 152.56 157.4 156.23 162.92 157.39 163.1 157.35 163.32 158.23 162.53 160.03 160.84 159.26 157.4 159.26 157.4 160.8 159.78 164.38 158.49 164.38 158.49 167.01 157.85 165.76 156.95 163.85 154.07 157.73 156.48 150.9 163.94 150.9" style="fill:#e9ae9a;" />
  <polygon points="155.96 147.49 156.9 149.69 156.48 150.9 154.07 157.73 148.71 156.64 145.96 155.56 139.1 155.56 135.48 157.73 130.15 157.73 132.01 163.87 128.29 164.82 124.57 158.55 118.61 152.56 115.83 149.49 113.1 151.51 111.68 149.59 114.52 148.46 112.48 146.78 106.01 150.24 106.01 145.5 106.01 140.38 101.6 134.25 101.6 132.04 105.54 133.24 112.48 142.62 121.22 146.78 124.57 150.9 124.57 146.03 132.01 144.97 141.46 148.59 155.96 147.49" style="fill:#e4e4e4;" />
  <polygon points="152.65 164.35 145.96 169.49 145.96 167.35 147.33 165.76 145.21 163.87 146.27 163.31 148.71 163.87 150.68 163.87 152.65 164.35" style="fill:#d3d2d2;" />
  <polygon points="142.53 171.5 139.1 172.38 139.1 174.9 136.38 176.33 135.48 179.16 126.02 179.16 121.28 179.69 121.22 179.15 122.9 176 126.43 176 126.43 172.38 122.9 172.38 122.06 170.92 124.57 170.24 129.71 167.97 130.75 168.44 129.71 169.99 132.01 173.01 135.48 171.43 137.29 169.49 142.53 171.5" style="fill:#e1e1e1;" />
  <polygon points="135.48 30.25 136.73 33.09 130.83 38.74 128.84 36.08 125.86 34.67 118.61 39.08 115.29 48.69 116.06 33.09 125.77 27.89 135.48 22.69 135.48 30.25" style="fill:#d7d6d6;" />
  <polygon points="135.48 22.69 125.77 27.89 126.02 19.38 126.94 13.55 130.75 15.36 132.01 19.38 135.48 22.69" style="fill:#dfdfdf;" />
  <polygon points="130.83 38.74 128.84 40.65 124.44 44.75 116.96 53.42 114.36 55.46 114.36 51.37 115.29 48.69 118.61 39.08 125.86 34.67 128.84 36.08 130.83 38.74" style="fill:#c4c4c4;" />
  <polygon points="126.94 13.55 126.02 19.38 125.77 27.89 116.06 33.09 115.29 48.69 114.36 51.37 109 46.01 109 40.65 106.8 34.67 101.75 40.65 103.02 34.67 103.02 19.38 103.56 19.38 109 18.15 113.5 19.38 118.61 12.69 115.18 10.91 113.5 12.69 107.51 12.69 103.02 16.48 103.02 14.81 101.6 10.91 104.27 1.89 107.9 0 114.52 4.1 120.03 0.95 124.44 4.1 127.28 11.35 126.94 13.55" style="fill:#dfdfdf;" />
  <polygon points="120.03 55.46 115.7 63.26 107.9 66.85 106.01 79.1 109 82.89 103.02 93.11 103.02 96.27 102.35 97.43 97.34 86.98 103.02 73.9 93.72 79.1 114.36 51.37 114.36 55.46 120.03 55.46" style="fill:#dfdfdf;" />
  <polygon points="118.61 12.69 113.5 19.38 109 18.15 103.56 19.38 103.02 19.38 103.02 16.48 107.51 12.69 113.5 12.69 115.18 10.91 118.61 12.69" style="fill:#d7d6d6;" />
  <polygon points="116.85 179.84 116.89 180.19 107.9 181.2 111.68 173.01 113.5 174.55 113.5 178.11 116.85 179.84" style="fill:#d3d2d2;" />
  <polygon points="115.7 63.26 109 75.32 109 82.89 106.01 79.1 107.9 66.85 115.7 63.26" style="fill:#dbdbdb;" />
  <path d="M103.77,16.57V34.76l-1.26,6,5-6,2.21,6V46.1l5.35,5.35L94.48,79.19l9.3-5.2L98.1,87.07l5,10.44L94,113.23v6.62l-2.52,10.24,2.52,2L95,142.46l4.73,7.33,5.35,5,2.52,9.14,4.88,9.14-3.78,8.19-17.18-4.1L87.39,175v-6.93l-4.1-8.19H80.77l-4.1-10.08H73.2l-3.47-4.73L66,139.86h-4.1l1.26-5.52,1.26-8.51-2.52-6V109.13l-2.42-9.8,3.68-12.26,4.73-2.84L85.33,55.56l7.72-16.39L95,30.35,98.1,24l1.58-9.14L101.25,8l1.1,3,1.42,3.9v1.67ZM89.44,90.66l5.51-5H91.48L76.67,104.79l8.67-5.46Z" transform="translate(-0.76 -0.09)" style="fill:#d7d8d8;" />
  <polygon points="94.19 85.56 88.68 90.57 84.58 99.24 75.92 104.7 90.73 85.56 94.19 85.56" style="fill:#c4c4c4;" />
  <polygon points="86.63 167.97 86.63 174.9 81.35 175.86 81.27 175.41 74.18 168.1 75.92 160.89 80.01 159.78 82.53 159.78 86.63 167.97" style="fill:#a5a4a4;" />
  <polygon points="81.27 175.41 81.35 175.86 77.96 176.48 67.09 176.48 70.72 171.65 61.1 171.65 56.7 174.9 49.92 173.01 37.15 167.97 36.61 160.89 41.41 157.2 39.99 145.5 48.68 146.78 48.68 150.24 49.92 154.24 53.23 154.24 56.14 148.27 53.23 144.97 54.68 142.01 61.1 139.77 65.2 139.77 68.98 144.97 72.45 149.69 75.92 149.69 80.01 159.78 75.92 160.89 74.18 168.1 81.27 175.41" style="fill:#a8a8a9;" />
  <polygon points="70.72 171.65 67.09 176.48 62.36 176.48 56.7 174.9 61.1 171.65 70.72 171.65" style="fill:#a5a4a4;" />
  <polygon points="61.1 119.75 63.63 125.74 62.36 134.25 61.1 139.77 54.68 142.01 53.23 139.77 49.3 140.38 48.68 138.3 42.83 138.3 39.99 132.04 42.83 122.28 45.35 122.28 46.6 117.23 53.23 105.25 57.95 96.27 58.68 99.24 61.1 109.04 61.1 119.75" style="fill:#bcbbbb;" />
  <polygon points="53.23 144.97 56.14 148.27 53.23 154.24 49.92 154.24 48.68 150.24 48.68 146.78 39.99 145.5 41.41 157.2 36.61 160.89 35.58 147.49 39.99 132.04 42.83 138.3 48.68 138.3 49.3 140.38 53.23 139.77 54.68 142.01 53.23 144.97" style="fill:#b7b7b6;" />
</svg>
