<svg xmlns="http://www.w3.org/2000/svg" width="308.6" height="44.3" viewBox="0 0 308.6 44.3">
  <path d="M240.7,14.8c2.4,0.5,4.7-0.1,6.5-1.7c0.5-0.4-0.2-1.1-0.7-0.7c-1.6,1.3-3.5,1.8-5.5,1.4C240.3,13.7,240,14.6,240.7,14.8L240.7,14.8z" />
  <path d="M148.7,23.6c7.5-1.1,15-2.2,22.4-3.3c0.2,0,0.3-0.3,0.4-0.5c0.4-4-5-3.6-6.9-1.4c-2.1,2.5-1.5,7,0.8,9.2c3.9,3.9,10.5,1.2,14.3-1.4c5.6-3.9,10-9.3,13.1-15.3c0.3-0.6-0.5-1-0.9-0.5c-2.9,3.8-6.8,10.6-1.4,14.3c1.7,1.2,3.6,1,5.5,0.1c1.4-0.6,2.6-1.7,4-2.1c2.5-0.8,4.1,1,5.9,2.4c4.1,3,9.5,2.2,13.5-0.8c5.2-3.9,7-10.6,8.5-16.6c-0.3,0-0.7-0.1-1-0.1c0,5.1,0,10.2,0,15.3c0,0.3,0.2,0.5,0.5,0.5c12.9,1,25.8,0.2,38.4-2.6c-0.1-0.3-0.3-0.6-0.4-0.9c-1.9,0.8-3.5,2-5,3.4c-0.2,0.2-0.2,0.6,0.1,0.8c4.1,2.9,5.7,8.3,4.5,13c-0.3,1.2-0.8,2.3-1.4,3.4c-0.4,0.6-2.4,3.8-2.7,1.3c-0.1-1.2,2.2-2.7,2.9-3.2c1.4-0.8,3-1.2,4.5-1.7c13.2-3.8,26.5-7.2,39.9-10.1c0.6-0.1,0.4-1.1-0.3-1c-11,2.4-22,5.1-32.9,8.1c-2.7,0.7-19.7,4.1-14.4,10.3c0.1,0.2,0.4,0.2,0.6,0.1c6.9-5,6.8-16.3-0.2-21.1c0,0.3,0.1,0.5,0.1,0.8c1.4-1.4,2.9-2.5,4.7-3.3c0.5-0.2,0.1-1-0.4-0.9c-8.7,1.9-17.7,3-26.6,3c-2.1,0-4.2,0-6.3-0.1c-1.1,0-2.3,0-3.4-0.2c-1.4-0.3-1.3-0.1-1.4-1.6c-0.5-4.3,0-9,0-13.4c0-0.6-0.8-0.7-1-0.1c-1.3,5.2-2.8,10.9-6.6,14.8c-2,2-4.8,3.5-7.7,3.8c-3.1,0.3-5.2-1-7.6-2.8c-3.5-2.7-5.8-1.1-9.3,0.7c-3.5,1.8-6.9-0.6-6.9-4.5c-0.1-3.2,2.2-6,4-8.4c-0.3-0.2-0.6-0.3-0.9-0.5c-2.7,5.2-6.4,9.8-10.9,13.5c-3.9,3.2-12.9,7.9-16,1.3c-0.8-1.7-1-4.1,0-5.7c0.6-1,1.5-1.5,2.6-1.6c0.6-0.1,1.5-0.4,2.6,0.1c0.5,0.1,0.4,0.9,0.5,1.4c-0.5,0.1-1.9,0.2-2.4,0.3c-6.7,1-13.3,2-20,3C147.8,22.7,148.1,23.7,148.7,23.6L148.7,23.6z"/>
  <path d="M151.7,32.8c3.6-11.1,8.1-21.8,13.7-32c0.3-0.6-0.6-1.1-0.9-0.5c-5.6,10.3-10.2,21.1-13.8,32.3C150.6,33.1,151.5,33.4,151.7,32.8L151.7,32.8z" />
  <path d="M16.1,19.5c-2.1-3.1-6.3-3.4-9.4-1.7C2.2,20.1,1,25.7,0,30.2c-0.1,0.4,0.2,0.7,0.6,0.6c6.6-1.6,12.1-6.1,14.8-12.4c-0.3-0.1-0.6-0.3-0.9-0.4c-0.7,2.9-1.1,8.3,2.4,9.6c2.3,0.9,4.7-1.1,6.5-2.2c3.4-2.1,6.7-4.1,10.1-6.2c-0.2-0.2-0.5-0.4-0.7-0.6c-1.1,4.3,2.9,7.4,6.7,8.1c6.1,1.1,11.4-3.7,17.5-3.8c3.7,0,7.2,1.3,10.8,2.1c3,0.6,6,0.9,9,0.6c6-0.5,11.7-2.7,16.6-6.3c0.4-0.3,0.3-0.9-0.3-0.9c-3.5,0-9.4,0.4-10.1,4.9c-0.3,2.6,1.7,6.3,4.7,4.9c1.7-0.8,3-2.8,4.4-4.2c0.5-0.5,1.1-1.2,2-1.1c0.3,0.1,0.9,0.7,1.2,0.9c0.9,0.5,1.7,0.4,2.7,0.5c7.3,0.5,14.6,1.4,21.9,1.8c0.6,0,0.6-1,0-1c-5.3-0.3-10.5-0.9-15.8-1.3c-2.6-0.2-6.4,0.1-8.6-1.1c-0.9-0.5-1.3-1.1-2.4-0.7c-2.4,1-4.4,6.6-7.4,5.2c-2.7-1.3-1.6-5.2,0.5-6.5c2.1-1.2,4.7-1.3,7-1.3c-0.1-0.3-0.2-0.6-0.3-0.9c-4.5,3.3-9.7,5.5-15.3,6.1c-6,0.6-11.2-1.3-16.9-2.3c-5.2-0.9-9.3,0.8-14.1,2.4c-2.6,0.9-5.3,1.6-8,0.7c-2.8-0.9-5.6-3.3-4.7-6.5c0.1-0.4-0.4-0.8-0.7-0.6c-4.1,2.5-8.2,5.3-12.5,7.6c-5.6,3.1-6-4-5.1-7.7c0.1-0.5-0.7-0.9-0.9-0.4c-2.7,6-7.8,10.3-14.2,11.9c0.2,0.2,0.4,0.4,0.6,0.6c0.8-3.6,1.6-7.7,4.4-10.4c2.6-2.6,7.6-3.5,10,0C15.6,20.5,16.5,20,16.1,19.5L16.1,19.5z" />
</svg>
