<svg xmlns="http://www.w3.org/2000/svg" width="290.5" height="41.7" viewBox="0 0 290.5 41.7">
  <path d="M224.4,15.2c2,0.5,4,0,5.7-1.3c0.4-0.3-0.2-1-0.6-0.6c-1.4,1.1-3.1,1.5-4.8,1.1C224.1,14.3,223.8,15.1,224.4,15.2L224.4,15.2z" />
  <path d="M128.1,20.1c7.6-0.7,15.2-1.5,22.9-2.2c0.3,0,0.5-0.3,0.5-0.6c-0.6-3.6-5.3-3.3-7.2-1c-2,2.4-1.1,6.4,1.4,8.2c4.3,3.1,10.6,0.8,14.7-1.6c5.3-3.1,9.7-7.5,13.1-12.6c0.3-0.5-0.4-1-0.8-0.6c-3.1,3.3-6.9,9-3.2,13.4c3.6,4.3,9.1-3.2,13.1-2.2c2.9,0.7,4.8,3.5,7.6,4.5c2.7,0.9,5.5,0.2,7.9-1.1c6.2-3.3,8.9-9.3,11-15.6c-0.3,0-0.7-0.1-1-0.1c-0.1,4.4-0.2,8.9-0.4,13.3c0,0.3,0.2,0.5,0.5,0.5c13,1.3,26.1,0.9,39.1-1.1c-0.1-0.3-0.2-0.6-0.3-1c-1.9,0.7-3.6,1.6-5.2,2.9c-0.3,0.2-0.1,0.6,0.1,0.8c4,2.5,5.7,7.4,4,11.9c-0.4,1.2-1.1,2.2-2,3.1c-0.2,0.2-1.4,1.5-1.8,1.4c-0.8-0.2,0.2-2,0.4-2.3c2-2.3,6-2.6,8.8-3.2c12.9-2.8,25.8-5.1,38.9-7.2c0.6-0.1,0.4-1.1-0.3-1c-11.1,1.7-22.1,3.7-33.1,6c-2.1,0.4-20.6,3.1-15.3,8.8c0.1,0.2,0.4,0.2,0.6,0.1c7-4.1,7.1-14.1,0.3-18.5c0,0.3,0.1,0.5,0.1,0.8c1.5-1.2,3-2,4.8-2.7c0.6-0.2,0.4-1.1-0.3-1c-8.6,1.4-17.3,2-26,1.9c-2.1,0-4.1-0.1-6.2-0.2c-1.4-0.1-5.1,0.3-5.9-0.7c-0.8-0.9-0.1-4.7-0.1-6c0.1-2.2,0.1-4.4,0.2-6.7c0-0.6-0.8-0.7-1-0.1c-1.9,5.7-4.2,11-9.5,14.4c-2.9,1.9-6.4,2.8-9.6,1c-1.9-1.1-3.5-2.7-5.5-3.6c-3.4-1.4-6.4,1.6-9.5,2.7c-3.4,1.3-4.9-1.3-5-4.4c-0.1-3.4,2.1-5.8,4.2-8.1c-0.3-0.2-0.5-0.4-0.8-0.6c-4.2,6.3-10.8,12.6-18.3,14.6c-3.5,0.9-8.7,0.7-9.9-3.5c-0.3-1.2-0.3-2.7,0.5-3.8c1.2-1.7,5.2-2.3,5.6,0.4c0.2-0.2,0.3-0.4,0.5-0.6c-7.6,0.7-15.2,1.5-22.9,2.2C127.5,19.2,127.5,20.2,128.1,20.1L128.1,20.1z" />
  <path d="M130.6,28.1c3.4-9.5,7.6-18.7,12.7-27.5c0.3-0.5-0.5-0.9-0.8-0.4c-5.1,8.8-9.4,18.1-12.8,27.7C129.5,28.4,130.4,28.6,130.6,28.1L130.6,28.1z" />
  <path d="M13.7,17c-1.7-2.5-4.9-2.9-7.6-1.8c-3.6,1.5-5.3,5.6-6,9.2c-0.7,3.5,2.9,1.7,4.7,0.7c3.7-2,6.6-5.2,8.3-9c-0.3-0.1-0.5-0.2-0.8-0.3c-0.6,2.5-1,7.3,2.1,8.4c2,0.7,3.9-0.9,5.5-1.9c3-1.8,6-3.6,8.9-5.4c-0.2-0.2-0.4-0.3-0.6-0.5c-0.9,3.5,2,6,5.2,6.9c5.1,1.4,9.7-2.6,14.7-3.1c3.3-0.3,6.4,0.8,9.5,1.5c2.5,0.6,5.1,1,7.7,0.9c5.4-0.1,10.4-1.9,14.7-5.1c0.3-0.2,0.2-0.8-0.2-0.8c-3,0-7.5-0.1-7.9,3.8c-0.3,2.1,1.4,5.2,4,4.2c1.5-0.6,2.6-2.3,3.7-3.5c0.5-0.5,0.7-0.8,1.4-0.9c1-0.2,0.7,0.2,1.4,0.4c0.8,0.3,1.2,0.4,2.1,0.5c6.5,0.5,12.9,1.2,19.4,1.6c0.6,0,0.6-0.8,0-0.9c-4.3-0.3-8.6-0.7-12.9-1.1c-2.1-0.2-4.4-0.2-6.5-0.5c-1.7-0.2-1.6-0.8-2.8-1.2C81.5,19,81.3,19,81,19c-2.1,0.2-3.3,3.6-5,4.5c-3,1.6-4.1-2.6-2.6-4.5s4.2-1.6,6.4-1.5c-0.1-0.3-0.1-0.5-0.2-0.8c-3.9,2.9-8.5,4.7-13.4,4.9c-5,0.2-9.5-1.6-14.4-2.3c-4.2-0.6-7.6,0.8-11.5,2.2c-2.3,0.8-4.6,1.4-6.9,0.7c-2.5-0.8-4.9-2.8-4.2-5.7c0.1-0.4-0.3-0.7-0.6-0.5c-3.5,2.1-7,4.5-10.6,6.4c-2.1,1.2-4.2,1.2-4.9-1.5c-0.4-1.6-0.2-3.4,0.1-5c0.1-0.5-0.6-0.8-0.8-0.3c-1,2.3-2.4,4.3-4.3,6.1C7.3,22.5,1.6,27,1,24.6c-0.2-0.9,0.8-2.9,1.2-3.7c0.6-1.4,1.3-2.7,2.4-3.7c2.3-2.1,6.5-2.6,8.4,0.2C13.3,17.9,14,17.4,13.7,17L13.7,17z" />
</svg>
