<svg xmlns="http://www.w3.org/2000/svg" xmlns:xlink="http://www.w3.org/1999/xlink" style="display:none">
  <symbol viewBox='0 0 32 32' id='icon-instagram'>
    <path d="M16,6.2c3.2,0,3.6,0,4.9,0.1c3.3,0.1,4.8,1.7,4.9,4.9c0.1,1.3,0.1,1.6,0.1,4.8c0,3.2,0,3.6-0.1,4.8c-0.1,3.2-1.7,4.8-4.9,4.9c-1.3,0.1-1.6,0.1-4.9,0.1c-3.2,0-3.6,0-4.8-0.1c-3.3-0.1-4.8-1.7-4.9-4.9c-0.1-1.30.1-1.6-0.1-4.8c0-3.2,0-3.6,0.1-4.8c0.1-3.2,1.7-4.8,4.9-4.9C12.4,6.2,12.8,6.2,16,6.2z M16,4c-3.3,0-3.7,0-4.9,0.1c-4.4,0.2-6.8,2.6-7,7C4,12.3,4,12.7,4,16s0,3.7,0.1,4.9c0.2,4.4,2.6,6.8,7,7C12.3,28,12.7,28,16,28s3.7,0,4.9-0.1c4.4-0.2,6.8-2.6,7-7C28,19.7,28,19.3,28,16s0-3.7-0.1-4.9c-0.2-4.4-2.6-6.8-7-7C19.7,4,19.3,4,16,4z M16,9.8c-3.4,0-6.2,2.8-6.2,6.2s2.8,6.2,6.2,6.2s6.2-2.8,6.2-6.2C22.2,12.6,19.4,9.8,16,9.8z M16,20c-2.2,0-4-1.8-4-4c0-2.2,1.8-4,4-4s4,1.8,4,4C20,18.2,18.2,20,16,20z M22.4,8.2c-0.8,0-1.4,0.6-1.4,1.4s0.6,1.4,1.4,1.4c0.8,0,1.4-0.6,1.4-1.4S23.2,8.2,22.4,8.2z"></path>
  </symbol>
  <symbol viewBox='0 0 32 32' id='icon-vimeo'>
    <path d="M26.9,14.1c-2.4,5.2-8.3,12.3-12.1,12.3c-3.7,0-4.2-7.8-6.2-13c-1-2.6-1.6-2-3.5-0.7L4,11.2C6.7,8.9,9.4,6.1,11.1,6c1.9-0.2,3,1.1,3.4,3.8c0.6,3.6,1.4,9.2,2.7,9.2c1.1,0,3.7-4.4,3.9-6c0.2-2.3-1.7-2.4-3.4-1.7C20.4,2.5,31.5,4.1,26.9,14.1z"></path>
  </symbol>
</svg>
